<svg xmlns="http://www.w3.org/2000/svg" viewBox="0 0 1246.81 436.86"><title>logo</title><g id="text_white" data-name="text white"><path d="M657.46,153.37a35.64,35.64,0,0,1-5.69,19.83Q646.09,182,635.13,187t-26,5q-18,0-29.72-6.8A39.6,39.6,0,0,1,566,172.08q-5.19-8.18-5.19-15.89a10.78,10.78,0,0,1,11-10.88,9.38,9.38,0,0,1,6.6,2.49,19.7,19.7,0,0,1,4.6,7.39,49.08,49.08,0,0,0,5,9.71,20.28,20.28,0,0,0,7.59,6.44c3.27,1.68,7.55,2.53,12.87,2.53q10.95,0,17.8-5.11T633.14,156a13.45,13.45,0,0,0-3.69-9.83,23.78,23.78,0,0,0-9.55-5.77q-5.85-2-15.65-4.24a114.14,114.14,0,0,1-22-7.18,35.46,35.46,0,0,1-14-11.2q-5.19-7.11-5.19-17.64a30.31,30.31,0,0,1,5.48-17.85q5.48-7.8,15.85-12t24.41-4.2A60.46,60.46,0,0,1,628.2,68.9a41,41,0,0,1,13.57,7.39A30.88,30.88,0,0,1,649.66,86a22.32,22.32,0,0,1,2.49,9.88,11.7,11.7,0,0,1-3.11,7.93,10,10,0,0,1-7.77,3.53q-4.23,0-6.43-2.12a28.23,28.23,0,0,1-4.77-6.93,31.5,31.5,0,0,0-8-10.75q-4.65-3.85-14.94-3.86-9.55,0-15.4,4.19t-5.85,10.09a10.19,10.19,0,0,0,2,6.3,16.7,16.7,0,0,0,5.48,4.57,37.07,37.07,0,0,0,7.06,3q3.55,1.08,11.78,3.15a185.55,185.55,0,0,1,18.64,5.32,56.26,56.26,0,0,1,14.19,7,29,29,0,0,1,9.13,10.5Q657.47,144.14,657.46,153.37Z" style="fill:#569188"/><path d="M688.26,89.28a12,12,0,0,1-8.1-2.9q-3.36-2.91-3.36-8.22a10.22,10.22,0,0,1,3.45-7.93,11.58,11.58,0,0,1,8-3.11,11.88,11.88,0,0,1,7.8,2.82q3.41,2.82,3.4,8.22a10.35,10.35,0,0,1-3.32,8.18A11.49,11.49,0,0,1,688.26,89.28Zm11.2,23.41v65.49q0,6.81-3.23,10.3A10.74,10.74,0,0,1,688,192a10.22,10.22,0,0,1-8.09-3.57q-3.12-3.55-3.12-10.21V113.36q0-6.73,3.12-10.13a10.44,10.44,0,0,1,8.09-3.4,10.85,10.85,0,0,1,8.22,3.4Q699.46,106.64,699.46,112.69Z" style="fill:#569188"/><path d="M795.84,162.33a27.8,27.8,0,0,1-4.57,16.06q-4.56,6.69-13.49,10.13T756.07,192q-12.2,0-20.91-3.73t-12.87-9.34a18.8,18.8,0,0,1-4.15-11.25,8.68,8.68,0,0,1,2.66-6.39,9.11,9.11,0,0,1,6.72-2.66,7.86,7.86,0,0,1,5.48,1.75,19,19,0,0,1,3.65,4.9,24.89,24.89,0,0,0,8.34,9q4.86,3,13.24,3,6.81,0,11.17-3c2.9-2,4.36-4.33,4.36-6.93q0-6-4.53-8.72t-14.9-5.22a122.91,122.91,0,0,1-19.05-6.11,31.25,31.25,0,0,1-11.74-8.42,19.29,19.29,0,0,1-4.4-12.87,22.7,22.7,0,0,1,4.06-12.86,27.82,27.82,0,0,1,12-9.67q7.92-3.61,19.13-3.61a62.67,62.67,0,0,1,15.81,1.82,39.47,39.47,0,0,1,11.71,4.9,24.39,24.39,0,0,1,7.14,6.81,13.32,13.32,0,0,1,2.45,7.3,8.45,8.45,0,0,1-2.62,6.39q-2.61,2.49-7.43,2.49a9.08,9.08,0,0,1-5.93-2,39.07,39.07,0,0,1-5.61-6,20.41,20.41,0,0,0-6.06-5.31q-3.48-2-9.46-2a18.57,18.57,0,0,0-10.21,2.61q-4.07,2.63-4.07,6.52a7.05,7.05,0,0,0,3,5.85,25,25,0,0,0,8.05,3.78q5.07,1.49,13.95,3.65a74.53,74.53,0,0,1,17.22,6.14,28.61,28.61,0,0,1,10.13,8.43A18.66,18.66,0,0,1,795.84,162.33Z" style="fill:#569188"/><path d="M816.26,101.82h2.49V88.2c0-3.65.09-6.51.29-8.59a12.7,12.7,0,0,1,1.61-5.35,10.27,10.27,0,0,1,3.82-3.78A10.83,10.83,0,0,1,830,69a11.21,11.21,0,0,1,7.81,3.24,9.53,9.53,0,0,1,2.94,5.27,47.28,47.28,0,0,1,.63,8.84v15.44h8.3c3.21,0,5.65.76,7.34,2.28a7.52,7.52,0,0,1,2.54,5.85q0,4.58-3.62,6.39t-10.33,1.83h-4.23v41.67a67.66,67.66,0,0,0,.37,8.18,8.26,8.26,0,0,0,2,4.64q1.62,1.78,5.27,1.79a28.32,28.32,0,0,0,5.4-.71,28,28,0,0,1,5.31-.7,6.82,6.82,0,0,1,4.94,2.2,7.36,7.36,0,0,1,2.2,5.43q0,5.49-6,8.39T843.73,192q-10.62,0-16.1-3.57a16.53,16.53,0,0,1-7.18-9.87q-1.71-6.32-1.7-16.85v-43.5h-3q-4.9,0-7.47-2.32a7.6,7.6,0,0,1-2.58-5.9,7.31,7.31,0,0,1,2.7-5.85C810.21,102.58,812.82,101.82,816.26,101.82Z" style="fill:#569188"/><path d="M938.44,151.46H894.12a30,30,0,0,0,3.11,13.61,20.83,20.83,0,0,0,19.13,11.87,27,27,0,0,0,7.43-1,24.29,24.29,0,0,0,6.52-3,50.3,50.3,0,0,0,5.81-4.36q2.65-2.32,6.89-6.31a7.41,7.41,0,0,1,5-1.49,8.17,8.17,0,0,1,5.64,1.91,6.81,6.81,0,0,1,2.16,5.39,14.69,14.69,0,0,1-2.41,7.18,28.4,28.4,0,0,1-7.26,7.89,41.3,41.3,0,0,1-12.2,6.26A52.57,52.57,0,0,1,917,192q-21.84,0-33.95-12.45T871,145.73a56.18,56.18,0,0,1,3-18.64,41.11,41.11,0,0,1,8.71-14.73,37.66,37.66,0,0,1,14.11-9.42,50.59,50.59,0,0,1,18.6-3.28q13.27,0,22.78,5.6a36.93,36.93,0,0,1,14.24,14.49,38.12,38.12,0,0,1,4.73,18.09q0,8.55-4.9,11.08T938.44,151.46Zm-44.32-12.87h41.09q-.84-11.62-6.27-17.39t-14.32-5.77a18.13,18.13,0,0,0-13.9,5.85Q895.28,127.13,894.12,138.59Z" style="fill:#569188"/><path d="M1051.58,147.55v30.14q0,7.14-3.23,10.7a11,11,0,0,1-8.55,3.57,10.67,10.67,0,0,1-8.35-3.57q-3.2-3.55-3.19-10.7V141.58a117.63,117.63,0,0,0-.58-13.28,14.36,14.36,0,0,0-3.16-7.76c-1.71-2-4.43-3-8.13-3q-11.13,0-14.65,7.63t-3.53,21.92v30.63q0,7-3.2,10.66a10.69,10.69,0,0,1-8.42,3.61,10.87,10.87,0,0,1-8.43-3.61q-3.27-3.6-3.28-10.66V112.86q0-6.39,3-9.71a9.85,9.85,0,0,1,7.76-3.32,10.5,10.5,0,0,1,7.76,3.11c2.08,2.07,3.12,4.94,3.12,8.59v2.16a39.35,39.35,0,0,1,12.61-10.38A33.34,33.34,0,0,1,1024,100a30,30,0,0,1,14.7,3.4,26.6,26.6,0,0,1,10.12,10.3,39.42,39.42,0,0,1,12.29-10.34,31.36,31.36,0,0,1,14.52-3.36,33.2,33.2,0,0,1,16,3.65,23.29,23.29,0,0,1,10,10.46q2.91,6.15,2.9,19.34v44.25q0,7.14-3.23,10.7a11,11,0,0,1-8.55,3.57,10.87,10.87,0,0,1-8.43-3.61q-3.27-3.6-3.28-10.66v-38.1a86.7,86.7,0,0,0-.62-11.71,13.4,13.4,0,0,0-3.36-7.39c-1.83-2-4.59-3-8.3-3a15.19,15.19,0,0,0-8.51,2.65,18.11,18.11,0,0,0-6.27,7.14Q1051.58,133,1051.58,147.55Z" style="fill:#569188"/><path d="M1183.9,179.18a70.24,70.24,0,0,1-15.9,9.59,44.44,44.44,0,0,1-17.22,3.19,32.73,32.73,0,0,1-15.32-3.44,25.23,25.23,0,0,1-10.17-9.34,24.23,24.23,0,0,1-3.57-12.78,22.91,22.91,0,0,1,5.9-15.86q5.89-6.56,16.18-8.8,2.16-.5,10.71-2.24t14.65-3.19q6.1-1.45,13.24-3.53-.4-9-3.61-13.16t-13.24-4.19q-8.62,0-13,2.41a21.12,21.12,0,0,0-7.47,7.22,74.17,74.17,0,0,1-4.4,6.35c-.86,1-2.7,1.54-5.52,1.54a9.69,9.69,0,0,1-6.6-2.45,8,8,0,0,1-2.78-6.27,19.18,19.18,0,0,1,4.23-11.62q4.24-5.64,13.2-9.3t22.33-3.65q14.94,0,23.49,3.53a21.82,21.82,0,0,1,12.08,11.16q3.53,7.64,3.53,20.26,0,8,0,13.53c0,3.7-.07,7.83-.13,12.36a45.61,45.61,0,0,0,2.12,13.33q2.12,6.93,2.12,8.92a8.38,8.38,0,0,1-3.28,6.35A11,11,0,0,1,1198,192c-2.33,0-4.62-1.09-6.89-3.27A48.6,48.6,0,0,1,1183.9,179.18Zm-1.5-32.79a112.85,112.85,0,0,1-14.48,3.86q-9.51,2-13.16,3a17.89,17.89,0,0,0-7,3.74,9.54,9.54,0,0,0-3.32,7.76,11.47,11.47,0,0,0,3.9,8.75,14.42,14.42,0,0,0,10.21,3.62,26.63,26.63,0,0,0,12.41-3,19.69,19.69,0,0,0,8.34-7.6q3.08-5.15,3.07-16.93Z" style="fill:#569188"/><path d="M653.63,259.51H593.2V292h55.64c4.1,0,7.15.92,9.17,2.75a9.37,9.37,0,0,1,3,7.28,9.75,9.75,0,0,1-3,7.36q-3,2.83-9.22,2.84H593.2v37.67h62.51q6.31,0,9.53,2.94a10.1,10.1,0,0,1,3.2,7.81,9.88,9.88,0,0,1-3.2,7.63q-3.21,2.94-9.53,2.94h-72.9q-8.76,0-12.6-3.88t-3.84-12.56V255.26a22.41,22.41,0,0,1,1.71-9.44,10.7,10.7,0,0,1,5.38-5.33,22.65,22.65,0,0,1,9.35-1.67h70.82q6.4,0,9.53,2.85a10.59,10.59,0,0,1,0,15Q660,259.51,653.63,259.51Z" style="fill:#569188"/><path d="M767.45,341.26a30.24,30.24,0,0,1-5,17.48q-5,7.27-14.68,11t-23.62,3.75q-13.27,0-22.77-4.07t-14-10.16q-4.51-6.09-4.51-12.24a9.45,9.45,0,0,1,2.89-7,9.88,9.88,0,0,1,7.31-2.89,8.59,8.59,0,0,1,6,1.89,20.85,20.85,0,0,1,4,5.33,27.06,27.06,0,0,0,9.08,9.85q5.28,3.25,14.41,3.25c4.93,0,9-1.1,12.15-3.3s4.74-4.71,4.74-7.54q0-6.51-4.92-9.48t-16.22-5.7a133.44,133.44,0,0,1-20.73-6.64,34,34,0,0,1-12.78-9.16,21,21,0,0,1-4.79-14,24.73,24.73,0,0,1,4.43-14,30.39,30.39,0,0,1,13.05-10.52q8.63-3.93,20.82-3.93a68.2,68.2,0,0,1,17.21,2,42.83,42.83,0,0,1,12.74,5.33A26.39,26.39,0,0,1,760,288a14.54,14.54,0,0,1,2.66,8,9.19,9.19,0,0,1-2.85,7c-1.89,1.81-4.59,2.71-8.08,2.71a9.89,9.89,0,0,1-6.46-2.17,42.22,42.22,0,0,1-6.1-6.5,22.09,22.09,0,0,0-6.59-5.78q-3.8-2.17-10.3-2.17a20.21,20.21,0,0,0-11.11,2.84q-4.42,2.85-4.43,7.09a7.67,7.67,0,0,0,3.26,6.37,26.68,26.68,0,0,0,8.76,4.11q5.5,1.63,15.17,4A80.8,80.8,0,0,1,752.68,320a31.27,31.27,0,0,1,11,9.17A20.31,20.31,0,0,1,767.45,341.26Z" style="fill:#569188"/><path d="M876.75,343a21.22,21.22,0,0,1-2.76,9.84,33.52,33.52,0,0,1-8.4,10,43.26,43.26,0,0,1-14.22,7.64A60.64,60.64,0,0,1,832,373.33q-22.85,0-35.68-13.33t-12.82-35.72q0-15.18,5.87-26.83a42.06,42.06,0,0,1,17-18q11.11-6.37,26.56-6.37a52.77,52.77,0,0,1,17.57,2.8,46.06,46.06,0,0,1,13.55,7.23,34.62,34.62,0,0,1,8.49,9.44,18.62,18.62,0,0,1,2.93,9.34,9.86,9.86,0,0,1-3.29,7.5,11.31,11.31,0,0,1-8,3.07,8,8,0,0,1-5.1-1.58,24.55,24.55,0,0,1-4.56-5.1,37.35,37.35,0,0,0-9.44-10.3c-3.29-2.29-7.45-3.43-12.51-3.43A21.28,21.28,0,0,0,815,300.57q-6.69,8.54-6.68,23.35A45.3,45.3,0,0,0,810,336.7a29.12,29.12,0,0,0,5,9.93,21.26,21.26,0,0,0,7.86,6.24A24,24,0,0,0,832.94,355a22.78,22.78,0,0,0,12.69-3.43A30.05,30.05,0,0,0,855,341.08a23.81,23.81,0,0,1,4.88-6.5,9.22,9.22,0,0,1,6.41-2.35,9.51,9.51,0,0,1,7.5,3.43A11,11,0,0,1,876.75,343Z" style="fill:#569188"/><path d="M990.57,323.37a58.26,58.26,0,0,1-3.44,20.33,44.89,44.89,0,0,1-9.93,16,44,44,0,0,1-15.54,10.25,54.9,54.9,0,0,1-20.32,3.57,53.36,53.36,0,0,1-20.15-3.62,44.46,44.46,0,0,1-25.43-26.24,62.75,62.75,0,0,1,0-40.78,44.66,44.66,0,0,1,9.85-15.9,43.44,43.44,0,0,1,15.53-10.16,58.82,58.82,0,0,1,40.47,0,43.71,43.71,0,0,1,25.52,26.2A58.46,58.46,0,0,1,990.57,323.37Zm-24.75,0q0-15.08-6.64-23.48t-17.84-8.4a22.09,22.09,0,0,0-12.74,3.75,23.77,23.77,0,0,0-8.49,11.06,50.29,50.29,0,0,0-.05,34,24.29,24.29,0,0,0,8.4,11.06,21.85,21.85,0,0,0,12.88,3.84q11.19,0,17.84-8.45T965.82,323.37Z" style="fill:#569188"/><path d="M1010,358.51V251.56q0-7.41,3.3-11.2a11.17,11.17,0,0,1,8.89-3.8,11.71,11.71,0,0,1,9,3.75q3.43,3.75,3.43,11.25v107q0,7.5-3.48,11.25a11.7,11.7,0,0,1-9,3.75,11.12,11.12,0,0,1-8.8-3.89Q1010,365.75,1010,358.51Z" style="fill:#569188"/><path d="M1122.45,359.6a76.27,76.27,0,0,1-17.3,10.43,48.33,48.33,0,0,1-18.74,3.48,35.53,35.53,0,0,1-16.67-3.75,27.51,27.51,0,0,1-11.06-10.16,26.37,26.37,0,0,1-3.89-13.91,24.9,24.9,0,0,1,6.42-17.26q6.4-7.12,17.61-9.57,2.36-.54,11.65-2.44t16-3.48q6.63-1.57,14.41-3.84-.46-9.75-3.93-14.32t-14.41-4.56q-9.4,0-14.14,2.62a23,23,0,0,0-8.13,7.86,81.92,81.92,0,0,1-4.79,6.91c-.93,1.12-2.93,1.67-6,1.67a10.52,10.52,0,0,1-7.18-2.66,8.68,8.68,0,0,1-3-6.82,20.88,20.88,0,0,1,4.61-12.65q4.61-6.13,14.36-10.12t24.3-4q16.26,0,25.56,3.84t13.15,12.15q3.84,8.31,3.83,22,0,8.67,0,14.72t-.14,13.46a49.46,49.46,0,0,0,2.31,14.5q2.29,7.55,2.3,9.71,0,3.79-3.57,6.91a11.94,11.94,0,0,1-8.08,3.12q-3.8,0-7.5-3.57A53.12,53.12,0,0,1,1122.45,359.6Zm-1.62-35.68a126.08,126.08,0,0,1-15.77,4.2c-6.89,1.47-11.67,2.56-14.31,3.25a19.55,19.55,0,0,0-7.59,4.06,10.43,10.43,0,0,0-3.62,8.45,12.52,12.52,0,0,0,4.25,9.53q4.24,3.93,11.11,3.93a28.92,28.92,0,0,0,13.51-3.21,21.32,21.32,0,0,0,9.07-8.26q3.35-5.61,3.35-18.43Z" style="fill:#569188"/><path d="M1194.54,337.92v20.59q0,7.5-3.53,11.25a11.72,11.72,0,0,1-8.94,3.75,11.3,11.3,0,0,1-8.76-3.8q-3.43-3.78-3.43-11.2V289.86q0-16.62,12-16.62c4.09,0,7,1.3,8.85,3.88s2.8,6.42,3,11.48a43.21,43.21,0,0,1,9.08-11.48q4.65-3.87,12.42-3.88a31.92,31.92,0,0,1,15.09,3.88q7.32,3.88,7.31,10.3a9.77,9.77,0,0,1-3.11,7.45,9.66,9.66,0,0,1-6.73,2.94,31.26,31.26,0,0,1-6.55-1.67,30.57,30.57,0,0,0-9.17-1.67,13.45,13.45,0,0,0-8.85,2.84,18.26,18.26,0,0,0-5.33,8.45,58.47,58.47,0,0,0-2.62,13.32Q1194.54,326.81,1194.54,337.92Z" style="fill:#569188"/></g><g id="line_white" data-name="line white"><path d="M493.42,325a7.52,7.52,0,1,1-15,0V111a7.52,7.52,0,1,1,15,0Z" style="fill:#569188"/></g><g id="logo_white" data-name="logo white"><path d="M238.23,393.15a69.34,69.34,0,0,1,14.58-1c6.41.59,13.11,3.48,18.57,7.18,5.3,3.78,9.67,8.21,11.34,12.1-9.75,3.47-23.61,5.66-34.88,5.58-10.32.08-21.8-8.53-26.06-18.11-1.93-4.33-5.46-3.84-3.32-8.58,2.81-6.24,6.73-14.24,10.79-19.5,8.64-10.9,27.21-20.66,36.15-24.15-4.06,7.67-8.47,17.15-15,26.85a49.28,49.28,0,0,1-10.31,10.56c-5,4-8.22,5.68-13.71,8.74l-6.15,3.43,5.2-.85c4.29-.7,8.54-1.64,12.84-2.29Z" style="fill:#569188;fill-rule:evenodd"/><path d="M319.07,360.44a64.51,64.51,0,0,1,12.07-6.13c5.68-1.83,12.45-1.8,18.45-.64s11.23,3.48,14.07,6.19c-7.05,6.51-18.07,13.42-27.71,17.45-8.76,3.81-21.68.66-28.8-5.95-3.22-3-6-1.29-5.95-6.11.12-6.34.56-14.58,2.11-20.55,3.39-12.43,15.67-27.51,22-33.74-.67,8-1,17.71-3.05,28.36a45.74,45.74,0,0,1-4.95,12.76,81.19,81.19,0,0,1-8.5,12.43l-4,5.16,4.13-2.62c3.4-2.16,6.68-4.5,10.11-6.61Z" style="fill:#569188;fill-rule:evenodd"/><path d="M281.38,377.55a64.23,64.23,0,0,1,13.08-3.49c5.93-.61,12.55.82,18.17,3.22s10.27,5.72,12.48,9c-8.25,4.91-20.46,9.36-30.72,11.31-9.37,1.91-21.35-3.86-26.94-11.81-2.54-3.59-5.64-2.52-4.56-7.21,1.45-6.18,3.59-14.15,6.34-19.67,5.91-11.45,21-23.65,28.55-28.42-2.32,7.71-4.64,17.12-8.88,27.11A45.76,45.76,0,0,1,281.42,369a80.92,80.92,0,0,1-10.9,10.39l-5,4.22,4.58-1.7c3.77-1.41,7.47-3,11.27-4.37Z" style="fill:#569188;fill-rule:evenodd"/><path d="M350.3,333.36A60.81,60.81,0,0,1,361,326.47a36.06,36.06,0,0,1,17.18-2.38c5.63.65,10.83,2.17,13.75,4.43a96.91,96.91,0,0,1-24.22,19c-7.82,4.41-20.19,2.7-27.49-2.78-3.3-2.49-5.78-.63-6.15-5.14-.49-5.95-.88-13.69,0-19.41,2-11.95,12-27.23,17.33-33.66.14,7.56.78,16.64-.12,26.8a43.21,43.21,0,0,1-3.4,12.4,76.45,76.45,0,0,1-6.75,12.44l-3.24,5.21,3.61-2.85c3-2.34,5.81-4.85,8.81-7.15Z" style="fill:#569188;fill-rule:evenodd"/><path d="M377,301.09a60.75,60.75,0,0,1,8.79-9.18c4.47-3.4,10.48-5.48,16.16-6.32,5.63-.68,11-.41,14.4,1.11a97.08,97.08,0,0,1-19.12,24.09c-6.59,6.12-19,7.35-27.4,3.7-3.79-1.65-5.76.73-7.17-3.56-1.87-5.67-4.05-13.11-4.53-18.88-.86-12.08,5.33-29.27,9-36.77,1.9,7.32,4.64,16,6.12,26.09a43.15,43.15,0,0,1-.41,12.85,75.66,75.66,0,0,1-3.67,13.67l-1.94,5.83,2.85-3.61c2.34-3,4.52-6.07,6.9-9Z" style="fill:#569188;fill-rule:evenodd"/><path d="M186.28,393.15a69.38,69.38,0,0,0-14.58-1c-6.4.59-13.11,3.48-18.57,7.18-5.29,3.78-9.67,8.21-11.34,12.1,9.76,3.47,23.61,5.66,34.89,5.58,10.31.08,21.79-8.53,26.06-18.11,1.93-4.33,5.45-3.84,3.31-8.58-2.81-6.24-6.73-14.24-10.8-19.5-8.63-10.9-27.2-20.66-36.15-24.15,4.07,7.67,8.49,17.15,15,26.85a49.82,49.82,0,0,0,10.32,10.56c5,4,8.22,5.68,13.71,8.74l6.15,3.43-5.2-.85c-4.29-.7-8.54-1.64-12.84-2.29Z" style="fill:#569188;fill-rule:evenodd"/><path d="M105.44,360.44a63.91,63.91,0,0,0-12.07-6.13c-5.68-1.83-12.45-1.8-18.45-.64s-11.22,3.48-14.07,6.19c7.05,6.51,18.07,13.42,27.7,17.45,8.77,3.81,21.68.66,28.81-5.95,3.22-3,6-1.29,6-6.11-.13-6.34-.56-14.58-2.11-20.55-3.4-12.43-15.67-27.51-22-33.74.66,8,1,17.71,3,28.36a46,46,0,0,0,4.94,12.76,81.24,81.24,0,0,0,8.51,12.43l4,5.16-4.12-2.62c-3.41-2.16-6.69-4.5-10.12-6.61Z" style="fill:#569188;fill-rule:evenodd"/><path d="M143.13,377.55a64.23,64.23,0,0,0-13.08-3.49c-5.94-.61-12.55.82-18.17,3.22s-10.27,5.72-12.48,9c8.25,4.91,20.46,9.36,30.72,11.31,9.37,1.91,21.35-3.86,26.94-11.81,2.53-3.59,5.65-2.52,4.55-7.21-1.44-6.18-3.58-14.15-6.33-19.67-5.9-11.45-21.05-23.65-28.55-28.42,2.32,7.71,4.64,17.12,8.87,27.11A45.87,45.87,0,0,0,143.1,369,79.75,79.75,0,0,0,154,379.4l5,4.22-4.58-1.7c-3.78-1.41-7.47-3-11.27-4.37Z" style="fill:#569188;fill-rule:evenodd"/><path d="M74.21,333.36a60.49,60.49,0,0,0-10.7-6.89c-5.13-2.26-11.46-2.89-17.18-2.38s-10.83,2.17-13.75,4.43a97.27,97.27,0,0,0,24.22,19c7.83,4.41,20.21,2.7,27.5-2.78,3.3-2.49,5.78-.63,6.14-5.14.5-5.95.89-13.69,0-19.41-2-11.95-12-27.23-17.33-33.66-.16,7.56-.8,16.64.11,26.8a43.21,43.21,0,0,0,3.4,12.4,76.45,76.45,0,0,0,6.75,12.44l3.24,5.21L83,340.51c-3-2.34-5.82-4.85-8.82-7.15Z" style="fill:#569188;fill-rule:evenodd"/><path d="M47.48,301.09a59.78,59.78,0,0,0-8.79-9.18c-4.46-3.4-10.47-5.48-16.15-6.32-5.63-.68-11-.41-14.4,1.11a96.67,96.67,0,0,0,19.13,24.09c6.58,6.12,19,7.35,27.39,3.7,3.78-1.65,5.76.73,7.17-3.56,1.87-5.67,4-13.11,4.52-18.88.87-12.08-5.32-29.27-9-36.77-1.91,7.32-4.64,16-6.12,26.09a42.82,42.82,0,0,0,.41,12.85,75.66,75.66,0,0,0,3.67,13.67l1.94,5.83-2.84-3.61c-2.35-3-4.53-6.07-6.92-9Z" style="fill:#569188;fill-rule:evenodd"/><path d="M214.94,360.19a17.42,17.42,0,0,1-8.94-2.5c-32.32-17.57-136.93-79-136.93-131.41V87.84c0-7.21,3-13.89,9.19-17.57,6.53-3.89,64.32-38.11,92.94-45.35,10.73-2.72,26.94-4.28,44.81-4.28s34.16,1.56,44.91,4.28c28.73,7.27,81.91,41.59,88.29,45.48,6.08,3.71,6.23,10.31,6.23,17.44V226.28c0,52.38-101.93,113.84-134.25,131.41C218.15,359.35,218.3,360.19,214.94,360.19ZM89.53,86.33V231.7c0,18.61,56.33,65.54,122.73,103.4C278.65,297.24,335,250.31,335,231.7V86.14c-20.46-15.39-63.05-35.74-80.1-40.06-8.48-2.15-23.27-3.48-39.56-3.48S182.45,43.93,174,46.08C156.78,50.43,115.1,70.88,89.53,86.33Z" style="fill:#569188"/><path d="M289.85,228.52H263.72v14.07h24.06a5.73,5.73,0,0,1,4,1.19,4,4,0,0,1,1.31,3.14,4.2,4.2,0,0,1-1.29,3.18,5.56,5.56,0,0,1-4,1.24H263.72v16.28h27a5.94,5.94,0,0,1,4.12,1.27,4.36,4.36,0,0,1,1.39,3.38,4.23,4.23,0,0,1-1.39,3.3,5.89,5.89,0,0,1-4.12,1.27H259.23q-3.8,0-5.45-1.68t-1.66-5.43v-43a9.78,9.78,0,0,1,.74-4.09,4.6,4.6,0,0,1,2.32-2.3,9.86,9.86,0,0,1,4.05-.72h30.62a5.93,5.93,0,0,1,4.12,1.23,4.15,4.15,0,0,1,1.35,3.22,4.19,4.19,0,0,1-1.35,3.26A5.93,5.93,0,0,1,289.85,228.52Z" style="fill:#569188"/><path d="M175.24,130.5a16.84,16.84,0,0,1-2.67,9.33,17.82,17.82,0,0,1-7.84,6.49,29.34,29.34,0,0,1-12.22,2.34q-8.47,0-14-3.2a18.77,18.77,0,0,1-6.35-6.15,14,14,0,0,1-2.44-7.48,5.07,5.07,0,0,1,5.2-5.12,4.4,4.4,0,0,1,3.1,1.17,9.16,9.16,0,0,1,2.17,3.48,23.32,23.32,0,0,0,2.37,4.57,9.58,9.58,0,0,0,3.57,3,13.26,13.26,0,0,0,6.05,1.19,13.61,13.61,0,0,0,8.38-2.41,7.23,7.23,0,0,0,3.23-6,6.33,6.33,0,0,0-1.74-4.63,11.26,11.26,0,0,0-4.49-2.72q-2.76-.93-7.37-2A53.7,53.7,0,0,1,139.87,119a16.7,16.7,0,0,1-6.6-5.27,13.67,13.67,0,0,1-2.44-8.3,14.26,14.26,0,0,1,2.58-8.4,16.13,16.13,0,0,1,7.46-5.64,30.41,30.41,0,0,1,11.48-2,28.42,28.42,0,0,1,9.12,1.31,19.1,19.1,0,0,1,6.39,3.48,14.46,14.46,0,0,1,3.71,4.55,10.52,10.52,0,0,1,1.17,4.65,5.53,5.53,0,0,1-1.46,3.73,4.68,4.68,0,0,1-3.66,1.66,4.17,4.17,0,0,1-3-1,13.41,13.41,0,0,1-2.25-3.26,14.76,14.76,0,0,0-3.75-5.06q-2.19-1.81-7-1.81a12.15,12.15,0,0,0-7.25,2,5.74,5.74,0,0,0-2.75,4.74,4.77,4.77,0,0,0,.94,3,7.78,7.78,0,0,0,2.57,2.15,17.67,17.67,0,0,0,3.33,1.41q1.67.51,5.54,1.48a88.88,88.88,0,0,1,8.77,2.5,26.52,26.52,0,0,1,6.68,3.32,13.72,13.72,0,0,1,4.3,4.94A15.86,15.86,0,0,1,175.24,130.5Z" style="fill:#569188"/><path d="M340.83,73.22,214.29,30.86l-.48,153.49,130.16.47Zm-104.21,58a3.44,3.44,0,0,0,2.69,3.06q9.65,3.19,19.28,6.42c4.32,1.44,8.62,2.91,13,4.27a4.31,4.31,0,0,0,2.49,0c10.89-3.57,21.77-7.2,32.66-10.81.58-.2,1.19-.32,1.9-.51.41,2.87.41,2.87-2.09,3.71-10.7,3.55-21.39,7.13-32.11,10.62a5.57,5.57,0,0,1-3.21,0c-10.76-3.5-21.5-7.09-32.24-10.66-4.18-1.39-5.91-4.18-5.3-8.57a2.8,2.8,0,0,1,.64-1.23c.51-.65,1.09-1.24,1.73-2a6.63,6.63,0,0,1,.14-10.34c-2.21-2-3.11-4.38-2.22-7.23a5.86,5.86,0,0,1,3.91-4q17-5.62,34-11.22a3.15,3.15,0,0,1,1.8,0q16.8,5.5,33.57,11.1a8.56,8.56,0,0,1,1.61,1l-.07.43-7.24,2.4c-9.14,3-18.28,6.07-27.44,9a4.74,4.74,0,0,1-2.74,0c-9.84-3.2-19.67-6.48-29.5-9.72a6,6,0,0,0-2.12-.39,3.42,3.42,0,0,0-.68,6.71c3.2,1.11,6.43,2.16,9.64,3.23,7.52,2.49,15,5,22.57,7.44a5.09,5.09,0,0,0,2.92,0c10.66-3.48,21.29-7,31.94-10.56a21.93,21.93,0,0,1,2.46-.54c.34,2.76.35,2.77-2,3.54-10.65,3.54-21.29,7.11-32,10.56a6.58,6.58,0,0,1-3.78,0c-9.76-3.15-19.47-6.43-29.21-9.65-2.94-1-5.34.73-5,3.56a3.41,3.41,0,0,0,2.66,2.93q8.67,2.87,17.33,5.76c4.87,1.62,9.72,3.28,14.62,4.8a5.3,5.3,0,0,0,3,0c10.81-3.51,21.59-7.12,32.4-10.66.61-.2,1.75-.27,2,.06a2,2,0,0,1-1.22,2.82c-11.16,3.7-22.31,7.41-33.49,11a5.45,5.45,0,0,1-3.08-.22c-9.74-3.18-19.46-6.43-29.2-9.65C238.8,126.85,236.37,128.5,236.62,131.23Z" style="fill:#569188"/><path d="M179.39,220.07c-8.33-.07-16.66,0-25,0s-16.66,0-25,0a9.08,9.08,0,0,0-8.88,9.3,9.2,9.2,0,0,0,9.69,8.73,5.33,5.33,0,0,0,1.09-10.53c-1.19-.28-2.6-.56-3.11,1s.69,1.79,1.81,2.33c.72.34,1,1.59,1.46,2.44-.82.41-1.66,1.22-2.45,1.18a5.12,5.12,0,0,1-4.55-5c-.2-2.84,1.3-5.31,3.85-5.73a35.55,35.55,0,0,1,5.56,0q22.37-.16,44.73-.35a5.45,5.45,0,0,1,5.72,5.05c.21,3.35-1.58,5.65-4.77,6.09-1.59.22-2.85-1.12-2.16-2.46.33-.64,1.38-.88,2-1.44s1.22-1.25,1.22-1.9c0-.45-.94-1.1-1.59-1.32a3.06,3.06,0,0,0-1.89.18,5.72,5.72,0,0,0-3.71,5.76,5.59,5.59,0,0,0,5.2,4.69,9.3,9.3,0,0,0,9.72-8.75C188.62,224.63,184.35,220.1,179.39,220.07Z" style="fill:#569188"/><path d="M141.93,231.6q12.57,0,25.15,0c2.63,0,3.27-.66,3.5-3.56H137.93C138.54,230.88,139.38,231.6,141.93,231.6Z" style="fill:#569188"/><path d="M83,184.08l5.29,78.7,124.55,90.73,1.51-169.33ZM181,241.83c-2.42.39-5-.43-7.78-.72v1.68q0,12.89,0,25.77a4.91,4.91,0,0,1-.27,2.32,2.45,2.45,0,0,1-1.83,1c-.47,0-1.15-.72-1.37-1.27a6.06,6.06,0,0,1-.11-2.14q0-14.73,0-29.45a5.62,5.62,0,0,0-.11-2.14c-.25-.58-1.06-1.42-1.46-1.34a2.86,2.86,0,0,0-1.65,1.46,4.52,4.52,0,0,0-.07,1.92v30.31c0,1.29.23,2.8-1.79,2.73s-1.82-1.52-1.82-2.84q0-15.15.06-30.31a5.61,5.61,0,0,0-.12-2.14,2.1,2.1,0,0,0-1.46-1.15,2.15,2.15,0,0,0-1.62,1,4.8,4.8,0,0,0-.18,2.13q0,14.93,0,29.87a5.15,5.15,0,0,1-.07,1.93c-.27.6-.91,1.4-1.43,1.43a2.29,2.29,0,0,1-1.7-1.17,6.74,6.74,0,0,1-.22-2.56c0-9.67.07-19.34.1-29a4.5,4.5,0,0,0-.09-1.92,8.34,8.34,0,0,0-1.7-1.71c-.55.6-1.54,1.16-1.58,1.79-.18,2.73-.07,5.48-.07,8.22q0,12,0,24c0,1.34-.09,2.53-1.91,2.39-1.56-.12-1.5-1.23-1.5-2.37q0-15.25,0-30.52a5,5,0,0,0-.1-2.14,2.68,2.68,0,0,0-1.72-1.37c-.44-.05-1.14.8-1.46,1.39a4.21,4.21,0,0,0-.05,1.71V268.1c0,.58,0,1.16,0,1.74,0,1.19-.34,2.18-1.81,2.16s-1.82-.87-1.81-2.14c0-3,0-5.92,0-8.88,0-7.65,0-15.3,0-23,0-1.1.35-2.5-1.44-2.59s-1.8,1.33-1.8,2.56q0,15.15,0,30.31a5,5,0,0,1-.12,2.13c-.32.64-1.1,1.44-1.68,1.45s-1.34-.82-1.66-1.46a5.15,5.15,0,0,1-.13-2.13q0-12.12,0-24.25v-3.29a9.89,9.89,0,0,0-1.43.24c-7.31,2.57-14.51-.94-16.68-8.15a13,13,0,0,1,9.48-16.4,14.64,14.64,0,0,1,3.43-.42q24.12,0,48.23,0a13,13,0,0,1,13.25,12A12.75,12.75,0,0,1,181,241.83Z" style="fill:#569188"/></g></svg>